PathFileType	4	(X/Y/Z)	 s08c0201.trc
DataRate	CameraRate	NumFrames	NumMarkers	Units	OrigDataRate	OrigDataStartFrame	OrigNumFrames
200	200	4	50	mm	200	1251	2000
Frame#	Time	racr			lacr			c7			jug			rlel			rdr			llel			ldr			s2			lic			ric			lasi			rasi			rpsi			lpsi			rgt			lgt			rth1			rth2			rth3			rth4			rlfc			rmfc			rsh1			rsh2			rsh3			rsh4			rlmal			rmmal			rcal			rtoe			rmt5			lth1			lth2			lth4			lth3			llfc			lmfc			llmal			lmmal			lcal			lmt5			lsh1			lsh2			lsh3			lsh4			ltoe			SBIKE			LBIKE			RBIKE			
		X1	Y1	Z1	X2	Y2	Z2	X3	Y3	Z3	X4	Y4	Z4	X5	Y5	Z5	X6	Y6	Z6	X7	Y7	Z7	X8	Y8	Z8	X9	Y9	Z9	X10	Y10	Z10	X11	Y11	Z11	X12	Y12	Z12	X13	Y13	Z13	X14	Y14	Z14	X15	Y15	Z15	X16	Y16	Z16	X17	Y17	Z17	X18	Y18	Z18	X19	Y19	Z19	X20	Y20	Z20	X21	Y21	Z21	X22	Y22	Z22	X23	Y23	Z23	X24	Y24	Z24	X25	Y25	Z25	X26	Y26	Z26	X27	Y27	Z27	X28	Y28	Z28	X29	Y29	Z29	X30	Y30	Z30	X31	Y31	Z31	X32	Y32	Z32	X33	Y33	Z33	X34	Y34	Z34	X35	Y35	Z35	X36	Y36	Z36	X37	Y37	Z37	X38	Y38	Z38	X39	Y39	Z39	X40	Y40	Z40	X41	Y41	Z41	X42	Y42	Z42	X43	Y43	Z43	X44	Y44	Z44	X45	Y45	Z45	X46	Y46	Z46	X47	Y47	Z47	X48	Y48	Z48	X49	Y49	Z49	X50	Y50	Z50	
1251	6.2550	548.894586	1333.970262	-65.635340	564.285327	1322.691787	-434.336119	545.450929	1430.641818	-249.291347	506.561599	1271.915910	-247.159357	543.750107	1094.572569	59.273948	772.500284	935.264693	-47.098085	539.787126	1056.225424	-533.516044	757.342192	932.797178	-415.122758	3.970227	1200.116068	-244.309113	158.509986	1201.857414	-398.610328	156.660352	1216.150749	-79.106302	189.017672	1154.414042	-362.434431	191.277560	1167.226612	-116.224079	33.429444	1242.334933	-194.682430	35.114695	1242.770396	-290.627011	104.954000	1104.770745	-45.779055	112.007141	1073.686914	-421.044417	246.263587	1003.800890	-49.100359	329.032716	972.031381	-56.006472	382.899681	903.605720	-64.288357	348.449569	999.822190	-71.206001	457.639452	821.556115	-86.339590	433.390609	808.862760	-193.813228	349.409195	752.818133	-50.701377	301.664988	677.436320	-65.618175	225.939715	637.081058	-65.160989	324.445713	657.845264	-92.991306	131.760191	563.152458	-65.408243	159.117231	564.470639	-152.526469	54.593644	587.554392	-110.797092	271.379747	384.451591	-99.492016	183.765919	421.436469	-35.299382	191.848571	958.064573	-426.539816	257.947707	901.289839	-419.735654	287.047233	921.667140	-409.666129	286.653394	817.349407	-415.268947	343.017207	704.612496	-392.560198	336.786670	676.613590	-290.168221	296.441803	287.201363	-402.493339	334.040993	318.598076	-330.565869	231.876092	264.119146	-365.874916	440.999675	202.929800	-413.081068	324.160713	576.005237	-420.510382	338.254077	492.654869	-406.167281	310.764648	408.619988	-408.198570	358.514561	494.182267	-371.476098	520.012791	233.873243	-341.185064	-134.806962	944.088642	-224.788448	26.169816	83.857135	-427.098293	17.602788	80.237113	-28.805488	
1252	6.2600	548.957401	1331.998166	-63.369778	565.570271	1323.364795	-431.765057	545.751670	1430.656510	-246.281163	507.275373	1271.770945	-244.925887	543.047469	1092.106801	60.812396	773.130574	935.351474	-47.816821	541.168378	1057.823418	-533.107934	757.963038	932.997425	-415.357441	4.055521	1200.755225	-246.542974	160.186980	1202.161656	-399.584816	154.560000	1217.425084	-80.032983	189.332292	1153.818116	-363.405598	190.115629	1168.668911	-116.846746	32.926309	1243.466666	-197.088087	35.456166	1243.427932	-292.705070	103.775354	1107.464539	-46.883100	111.103753	1073.413890	-421.823388	246.527662	1008.613452	-49.377124	329.945675	978.488464	-56.268046	384.898623	910.782902	-64.057734	348.755551	1006.586610	-71.293886	461.784223	830.224911	-86.464153	437.769737	817.320364	-196.642418	353.915868	761.323681	-51.288262	306.340099	685.915584	-65.837770	230.636824	645.444336	-65.351792	329.200016	666.042344	-93.086137	136.740516	570.926767	-65.668377	164.111027	572.617187	-152.646842	59.636232	594.289017	-110.446766	279.220240	394.943106	-99.117502	190.989021	430.077012	-35.317140	187.940573	956.192793	-428.097804	252.723973	897.818901	-421.441777	282.350880	917.331954	-411.286157	279.458727	813.156049	-417.216858	333.148626	698.611195	-394.386376	325.500960	671.484875	-292.548840	289.960252	281.058787	-402.756100	327.773702	312.649944	-331.064904	226.093477	259.250199	-365.805704	433.983101	194.638373	-413.187445	314.663029	569.911393	-422.256062	329.694119	486.744457	-407.653788	303.076670	402.485373	-409.407090	350.000256	488.557349	-373.145091	513.686590	224.409824	-341.422479	-134.832229	944.069250	-224.720665	26.173666	83.867103	-427.101000	17.642161	80.307337	-28.830359	
1253	6.2650	549.080804	1330.174944	-61.126349	566.725971	1324.031221	-429.111203	546.119107	1430.660746	-243.229376	507.910569	1271.655443	-242.626411	542.312260	1089.773639	61.934664	773.577369	935.463154	-48.542028	542.517355	1059.525368	-532.667246	758.561483	933.210408	-415.664864	4.219793	1201.479414	-248.547240	161.555070	1202.465423	-400.110299	152.510188	1218.666253	-80.985442	189.486742	1153.113848	-364.301774	189.303193	1170.059679	-117.257371	32.347637	1244.625471	-199.384768	35.686188	1244.120234	-294.683369	102.481253	1110.168941	-47.828382	109.916159	1073.214212	-422.534936	246.755543	1013.575573	-49.754567	330.693593	985.168930	-56.452177	387.277507	918.793907	-63.701444	349.417152	1013.479846	-71.618382	465.873601	838.912686	-86.270882	435.086661	834.265531	-221.120906	358.529470	769.827029	-51.593820	311.142389	694.077409	-65.921413	235.609735	653.609771	-65.510204	334.060801	674.245012	-93.067704	142.075608	578.043170	-65.776202	169.410101	580.247662	-152.650785	63.708691	600.161205	-110.789380	286.746910	403.941494	-100.200842	198.554489	438.253725	-35.306537	183.899591	954.556469	-429.507513	247.398004	894.640800	-423.225140	277.479425	913.463737	-413.028947	272.044065	809.322444	-419.248605	322.892545	693.167112	-396.400449	315.763102	666.246802	-294.024181	283.075128	275.391825	-402.970693	321.698547	306.964905	-331.801948	219.874500	254.837373	-365.715167	426.670190	186.795121	-413.267413	304.596762	564.272031	-423.846314	320.663016	481.343538	-409.378020	294.813325	396.867054	-410.641267	341.210900	483.466881	-375.019354	506.860343	215.358934	-341.625402	-134.894833	943.981627	-224.604999	26.194549	83.929946	-427.133487	17.660538	80.386084	-28.835069	
1254	6.2700	549.197368	1328.503339	-58.909712	567.086286	1323.786302	-424.415150	546.400165	1430.634653	-240.155480	507.939751	1271.642783	-238.975361	542.082055	1087.601640	63.352340	773.906262	935.591990	-49.111101	543.654076	1061.447068	-532.690906	759.099121	933.488037	-416.244727	4.283888	1202.207607	-250.484203	162.929123	1202.737534	-400.901077	150.550221	1220.091053	-82.007842	189.526350	1152.466602	-365.147175	188.200465	1171.579259	-117.723637	31.447375	1245.809962	-201.406273	35.935993	1244.826792	-296.620182	101.106541	1113.018459	-48.579925	108.472023	1073.066570	-423.187759	246.982193	1018.680633	-50.179717	331.769296	991.571846	-57.165842	388.911780	925.791963	-63.012820	349.659135	1020.508641	-71.429416	469.670364	847.398591	-86.207383	441.275248	847.392999	-231.753510	363.161053	778.207950	-51.908263	316.054230	702.187444	-65.969376	240.593822	661.332104	-65.363231	339.177976	682.251990	-92.726993	147.712425	584.635246	-65.842860	174.904455	587.287920	-152.424074	68.690541	605.479755	-110.635429	295.835026	413.783024	-99.687361	206.657318	446.250996	-35.227451	179.886666	953.169046	-430.888474	241.969533	891.723633	-425.122746	272.293540	909.702413	-414.871368	264.631138	805.839655	-421.393523	312.710981	688.140290	-398.466128	305.851677	661.651089	-295.970194	275.874878	270.157261	-403.186326	314.755129	301.896262	-332.332046	213.331371	251.069462	-365.663949	418.886120	179.362478	-413.427217	294.177985	559.200884	-425.626990	311.289115	476.467937	-411.125221	286.131598	391.710070	-411.829405	332.198005	478.831025	-377.051266	499.514107	206.616247	-341.780482	-134.924110	943.980136	-224.710756	26.193076	83.943941	-427.147737	17.640488	80.429154	-28.835984	
